#Comment line ignore any data following # character 
#Hierarchical Translation and Rotation (.htr) file 
[Header]	
#Header keywords are followed by a single value 
FileType HTR		#Single word string
DataType HTRS		#Translation followed by rotation and scale data
FileVersion 1		#integer
NumSegments 84		#integer
NumFrames 2		#integer
DataFrameRate 30		#integer, data frame rate in this file
EulerRotationOrder ZYX
CalibrationUnits mm
RotationUnits Degrees
GlobalAxisofGravity Y
BoneLengthAxis Y
ScaleFactor 1.00
[SegmentNames&Hierarchy]
#CHILD	PARENT
MASTER GLOBAL
root MASTER
chest root
L_mid_tent01 root
R_mid_tent01 root
spine01 root
Bip01_Neck chest
L_humerus chest
R_humerus chest
weapon_bone chest
Bip01_Head Bip01_Neck
eye_left_bone Bip01_Head
eye_right_bone Bip01_Head
L_forearm L_humerus
L_front_hand L_forearm
L_weapon_bone L_forearm
L_front_hand01_01 L_front_hand
L_front_hand02_01 L_front_hand
L_front_hand03_01 L_front_hand
L_front_hand01_02 L_front_hand01_01
L_front_hand02_02 L_front_hand02_01
L_front_hand03_02 L_front_hand03_01
R_forearm R_humerus
R_front_hand R_forearm
R_weapon_bone R_forearm
R_front_hand01_01 R_front_hand
R_front_hand02_01 R_front_hand
R_front_hand03_01 R_front_hand
R_front_hand01_02 R_front_hand01_01
R_front_hand02_02 R_front_hand02_01
R_front_hand03_02 R_front_hand03_01
null_rope01_connect L_mid_tent01
Rope1_Seg01 null_rope01_connect
Rope1_Seg02 Rope1_Seg01
Rope1_Seg03 Rope1_Seg02
Rope1_Seg04 Rope1_Seg03
Rope1_Seg05 Rope1_Seg04
Rope1_Seg06 Rope1_Seg05
Rope1_Seg07 Rope1_Seg06
Rope1_Seg09 Rope1_Seg07
L_mid_hand01 Rope1_Seg09
L_mid_hand02 Rope1_Seg09
L_mid_hand03 Rope1_Seg09
null_rope02_connect R_mid_tent01
Rope2_Seg01 null_rope02_connect
Rope2_Seg02 Rope2_Seg01
Rope2_Seg03 Rope2_Seg02
Rope2_Seg04 Rope2_Seg03
Rope2_Seg05 Rope2_Seg04
Rope2_Seg06 Rope2_Seg05
Rope2_Seg07 Rope2_Seg06
Rope2_Seg09 Rope2_Seg07
R_mid_hand01 Rope2_Seg09
R_mid_hand02 Rope2_Seg09
R_mid_hand03 Rope2_Seg09
spine02 spine01
spine03 spine02
pelvis spine03
null_rope03_connect pelvis
null_rope04_connect pelvis
Rope3_Seg01 null_rope03_connect
Rope3_Seg02 Rope3_Seg01
Rope3_Seg03 Rope3_Seg02
Rope3_Seg04 Rope3_Seg03
Rope3_Seg05 Rope3_Seg04
Rope3_Seg06 Rope3_Seg05
Rope3_Seg07 Rope3_Seg06
Rope3_Seg08 Rope3_Seg07
Rope3_Seg09 Rope3_Seg08
R_rear_hand01 Rope3_Seg09
R_rear_hand02 Rope3_Seg09
R_rear_hand03 Rope3_Seg09
Rope4_Seg01 null_rope04_connect
Rope4_Seg02 Rope4_Seg01
Rope4_Seg03 Rope4_Seg02
Rope4_Seg04 Rope4_Seg03
Rope4_Seg05 Rope4_Seg04
Rope4_Seg06 Rope4_Seg05
Rope4_Seg07 Rope4_Seg06
Rope4_Seg08 Rope4_Seg07
Rope4_Seg09 Rope4_Seg08
L_rear_hand01 Rope4_Seg09
L_rear_hand02 Rope4_Seg09
L_rear_hand03 Rope4_Seg09
[BasePosition]
#SegmentName Tx, Ty, Tz, Rx, Ry, Rz, BoneLength
MASTER 0.000000 0.000000 0.000000 -90.000000 0.000000 0.000000 10.000000 
root 0.000000 0.000000 0.000000 0.000000 0.000000 0.000000 10.000000 
chest 0.000000 0.000000 0.000000 0.000000 0.000000 0.000000 10.000000 
L_mid_tent01 0.000000 0.000000 0.000000 0.000000 0.000000 0.000000 10.000000 
R_mid_tent01 0.000000 0.000000 0.000000 0.000000 0.000000 0.000000 10.000000 
spine01 0.000000 0.000000 0.000000 0.000000 0.000000 0.000000 10.000000 
Bip01_Neck 0.000000 0.000000 0.000000 0.000000 0.000000 0.000000 10.000000 
L_humerus 0.000000 0.000000 0.000000 0.000000 0.000000 0.000000 10.000000 
R_humerus 0.000000 0.000000 0.000000 0.000000 0.000000 0.000000 10.000000 
weapon_bone 0.000000 0.000000 0.000000 0.000000 0.000000 0.000000 10.000000 
Bip01_Head 0.000000 0.000000 0.000000 0.000000 0.000000 0.000000 10.000000 
eye_left_bone 0.000000 0.000000 0.000000 0.000000 0.000000 0.000000 10.000000 
eye_right_bone 0.000000 0.000000 0.000000 0.000000 0.000000 0.000000 10.000000 
L_forearm 0.000000 0.000000 0.000000 0.000000 0.000000 0.000000 10.000000 
L_front_hand 0.000000 0.000000 0.000000 0.000000 0.000000 0.000000 10.000000 
L_weapon_bone 0.000000 0.000000 0.000000 0.000000 0.000000 0.000000 10.000000 
L_front_hand01_01 0.000000 0.000000 0.000000 0.000000 0.000000 0.000000 10.000000 
L_front_hand02_01 0.000000 0.000000 0.000000 0.000000 0.000000 0.000000 10.000000 
L_front_hand03_01 0.000000 0.000000 0.000000 0.000000 0.000000 0.000000 10.000000 
L_front_hand01_02 0.000000 0.000000 0.000000 0.000000 0.000000 0.000000 10.000000 
L_front_hand02_02 0.000000 0.000000 0.000000 0.000000 0.000000 0.000000 10.000000 
L_front_hand03_02 0.000000 0.000000 0.000000 0.000000 0.000000 0.000000 10.000000 
R_forearm 0.000000 0.000000 0.000000 0.000000 0.000000 0.000000 10.000000 
R_front_hand 0.000000 0.000000 0.000000 0.000000 0.000000 0.000000 10.000000 
R_weapon_bone 0.000000 0.000000 0.000000 0.000000 0.000000 0.000000 10.000000 
R_front_hand01_01 0.000000 0.000000 0.000000 0.000000 0.000000 0.000000 10.000000 
R_front_hand02_01 0.000000 0.000000 0.000000 0.000000 0.000000 0.000000 10.000000 
R_front_hand03_01 0.000000 0.000000 0.000000 0.000000 0.000000 0.000000 10.000000 
R_front_hand01_02 0.000000 0.000000 0.000000 0.000000 0.000000 0.000000 10.000000 
R_front_hand02_02 0.000000 0.000000 0.000000 0.000000 0.000000 0.000000 10.000000 
R_front_hand03_02 0.000000 0.000000 0.000000 0.000000 0.000000 0.000000 10.000000 
null_rope01_connect 0.000000 0.000000 0.000000 0.000000 0.000000 0.000000 10.000000 
Rope1_Seg01 0.000000 0.000000 0.000000 0.000000 0.000000 0.000000 10.000000 
Rope1_Seg02 0.000000 0.000000 0.000000 0.000000 0.000000 0.000000 10.000000 
Rope1_Seg03 0.000000 0.000000 0.000000 0.000000 0.000000 0.000000 10.000000 
Rope1_Seg04 0.000000 0.000000 0.000000 0.000000 0.000000 0.000000 10.000000 
Rope1_Seg05 0.000000 0.000000 0.000000 0.000000 0.000000 0.000000 10.000000 
Rope1_Seg06 0.000000 0.000000 0.000000 0.000000 0.000000 0.000000 10.000000 
Rope1_Seg07 0.000000 0.000000 0.000000 0.000000 0.000000 0.000000 10.000000 
Rope1_Seg09 0.000000 0.000000 0.000000 0.000000 0.000000 0.000000 10.000000 
L_mid_hand01 0.000000 0.000000 0.000000 0.000000 0.000000 0.000000 10.000000 
L_mid_hand02 0.000000 0.000000 0.000000 0.000000 0.000000 0.000000 10.000000 
L_mid_hand03 0.000000 0.000000 0.000000 0.000000 0.000000 0.000000 10.000000 
null_rope02_connect 0.000000 0.000000 0.000000 0.000000 0.000000 0.000000 10.000000 
Rope2_Seg01 0.000000 0.000000 0.000000 0.000000 0.000000 0.000000 10.000000 
Rope2_Seg02 0.000000 0.000000 0.000000 0.000000 0.000000 0.000000 10.000000 
Rope2_Seg03 0.000000 0.000000 0.000000 0.000000 0.000000 0.000000 10.000000 
Rope2_Seg04 0.000000 0.000000 0.000000 0.000000 0.000000 0.000000 10.000000 
Rope2_Seg05 0.000000 0.000000 0.000000 0.000000 0.000000 0.000000 10.000000 
Rope2_Seg06 0.000000 0.000000 0.000000 0.000000 0.000000 0.000000 10.000000 
Rope2_Seg07 0.000000 0.000000 0.000000 0.000000 0.000000 0.000000 10.000000 
Rope2_Seg09 0.000000 0.000000 0.000000 0.000000 0.000000 0.000000 10.000000 
R_mid_hand01 0.000000 0.000000 0.000000 0.000000 0.000000 0.000000 10.000000 
R_mid_hand02 0.000000 0.000000 0.000000 0.000000 0.000000 0.000000 10.000000 
R_mid_hand03 0.000000 0.000000 0.000000 0.000000 0.000000 0.000000 10.000000 
spine02 0.000000 0.000000 0.000000 0.000000 0.000000 0.000000 10.000000 
spine03 0.000000 0.000000 0.000000 0.000000 0.000000 0.000000 10.000000 
pelvis 0.000000 0.000000 0.000000 0.000000 0.000000 0.000000 10.000000 
null_rope03_connect 0.000000 0.000000 0.000000 0.000000 0.000000 0.000000 10.000000 
null_rope04_connect 0.000000 0.000000 0.000000 0.000000 0.000000 0.000000 10.000000 
Rope3_Seg01 0.000000 0.000000 0.000000 0.000000 0.000000 0.000000 10.000000 
Rope3_Seg02 0.000000 0.000000 0.000000 0.000000 0.000000 0.000000 10.000000 
Rope3_Seg03 0.000000 0.000000 0.000000 0.000000 0.000000 0.000000 10.000000 
Rope3_Seg04 0.000000 0.000000 0.000000 0.000000 0.000000 0.000000 10.000000 
Rope3_Seg05 0.000000 0.000000 0.000000 0.000000 0.000000 0.000000 10.000000 
Rope3_Seg06 0.000000 0.000000 0.000000 0.000000 0.000000 0.000000 10.000000 
Rope3_Seg07 0.000000 0.000000 0.000000 0.000000 0.000000 0.000000 10.000000 
Rope3_Seg08 0.000000 0.000000 0.000000 0.000000 0.000000 0.000000 10.000000 
Rope3_Seg09 0.000000 0.000000 0.000000 0.000000 0.000000 0.000000 10.000000 
R_rear_hand01 0.000000 0.000000 0.000000 0.000000 0.000000 0.000000 10.000000 
R_rear_hand02 0.000000 0.000000 0.000000 0.000000 0.000000 0.000000 10.000000 
R_rear_hand03 0.000000 0.000000 0.000000 0.000000 0.000000 0.000000 10.000000 
Rope4_Seg01 0.000000 0.000000 0.000000 0.000000 0.000000 0.000000 10.000000 
Rope4_Seg02 0.000000 0.000000 0.000000 0.000000 0.000000 0.000000 10.000000 
Rope4_Seg03 0.000000 0.000000 0.000000 0.000000 0.000000 0.000000 10.000000 
Rope4_Seg04 0.000000 0.000000 0.000000 0.000000 0.000000 0.000000 10.000000 
Rope4_Seg05 0.000000 0.000000 0.000000 0.000000 0.000000 0.000000 10.000000 
Rope4_Seg06 0.000000 0.000000 0.000000 0.000000 0.000000 0.000000 10.000000 
Rope4_Seg07 0.000000 0.000000 0.000000 0.000000 0.000000 0.000000 10.000000 
Rope4_Seg08 0.000000 0.000000 0.000000 0.000000 0.000000 0.000000 10.000000 
Rope4_Seg09 0.000000 0.000000 0.000000 0.000000 0.000000 0.000000 10.000000 
L_rear_hand01 0.000000 0.000000 0.000000 0.000000 0.000000 0.000000 10.000000 
L_rear_hand02 0.000000 0.000000 0.000000 0.000000 0.000000 0.000000 10.000000 
L_rear_hand03 0.000000 0.000000 0.000000 0.000000 0.000000 0.000000 10.000000 
#Beginning of Data. Separated by tabs
#Fr	Tx	Ty	Tz	Rx	Ry	Rz	SF
[MASTER]
18 -759.238708 3063.719727 1900.167603 0.001660 0.001660 0.001660 3684.217529
19 -410.538849 3211.197754 1810.039307 0.001660 0.001660 0.001660 3708.985840
[root]
18 -95.379364 -149.702682 583.236145 -164.398605 -4.518170 -88.532738 609.649536
19 -73.547363 -180.533432 590.444031 -159.514221 -3.364968 -85.643242 621.792297
[chest]
18 -84.512650 -34.090519 0.000000 -57.599834 -24.188250 -154.660843 91.129311
19 -84.512650 -34.090519 0.000000 -57.852379 -25.549440 -157.219147 91.129311
[L_mid_tent01]
18 27.298895 22.179258 -249.918686 -1.640569 24.734684 67.435135 252.381653
19 27.298887 22.179258 -249.918686 -1.603552 25.074114 67.450142 252.381653
[R_mid_tent01]
18 23.228794 24.509907 226.238495 165.831161 8.500435 61.216267 228.744751
19 23.228794 24.509907 226.238495 164.954727 12.820061 61.765484 228.744751
[spine01]
18 -0.361383 -0.195265 0.000000 0.001956 0.001297 22.914104 0.410763
19 -0.361383 -0.195265 0.000000 0.001956 0.001297 22.896448 0.410763
[Bip01_Neck]
18 165.484543 71.581718 0.000119 176.643677 -1.657967 43.431911 180.302734
19 165.484543 71.581718 0.000119 176.643677 -1.657967 43.431911 180.302734
[L_humerus]
18 -13.983130 -135.272980 -120.471481 172.182892 -5.016100 -89.806488 181.680161
19 -13.983130 -135.272980 -120.471481 172.228699 -5.975822 -90.914459 181.680161
[R_humerus]
18 -13.983309 -135.273102 125.287651 -176.999847 6.720942 -85.190620 184.909012
19 -13.983309 -135.273102 125.287651 -176.997284 7.225423 -85.165115 184.909012
[weapon_bone]
18 235.964890 -300.705902 0.000000 0.000000 -89.951546 -128.212341 382.234833
19 235.964890 -300.705902 0.000000 0.000000 -89.951546 -128.212341 382.234833
[Bip01_Head]
18 213.332092 186.028885 7.734710 18.223383 6.152124 -43.833614 283.155701
19 213.334473 186.022125 7.822464 18.223381 6.152122 -43.833611 283.155457
[eye_left_bone]
18 -24.626970 125.451866 -64.772606 0.000000 -90.000000 -99.840431 143.318359
19 -24.626970 125.451866 -64.772606 0.000000 -90.000000 -99.840431 143.318359
[eye_right_bone]
18 -24.626970 125.451866 64.327362 0.000000 -89.965736 80.156380 143.117676
19 -24.626970 125.451866 64.327362 0.000000 -89.965736 80.156380 143.117676
[L_forearm]
18 322.776093 0.000000 -0.000119 0.000432 -0.002307 -111.211708 322.776093
19 322.776093 0.000000 -0.000119 0.000432 -0.002307 -111.197716 322.776093
[L_front_hand]
18 241.149185 -0.042021 -3.300071 -178.667953 -1.835447 -27.422342 241.171753
19 241.149185 -0.042021 -3.300071 -178.667953 -1.835447 -27.422350 241.171753
[L_weapon_bone]
18 156.183838 0.000000 0.000000 0.000014 0.000007 0.000001 156.183838
19 156.183838 0.000000 0.000000 0.000014 0.000007 0.000001 156.183838
[L_front_hand01_01]
18 86.095154 20.947098 -0.655860 -0.334039 -0.500941 71.473778 88.609184
19 86.095154 20.947098 -0.655860 -0.343298 -0.494452 72.684830 88.609184
[L_front_hand02_01]
18 86.935165 -11.437475 24.513514 148.678970 -58.017033 -54.691490 91.046425
19 86.935165 -11.437475 24.513514 150.381821 -58.634853 -56.693264 91.046425
[L_front_hand03_01]
18 86.637497 -14.123976 -20.424902 -148.599609 56.232189 -56.378220 90.126129
19 86.637497 -14.123976 -20.424902 -150.184570 56.852535 -58.280544 90.126129
[L_front_hand01_02]
18 71.020905 -0.000179 0.000030 0.000322 -0.002325 -105.750679 71.020905
19 71.020905 -0.000179 0.000030 0.000323 -0.002325 -105.841873 71.020905
[L_front_hand02_02]
18 71.020927 -0.000119 0.000060 0.000322 -0.002325 -105.750679 71.020927
19 71.020927 -0.000119 0.000060 0.000323 -0.002325 -105.841873 71.020927
[L_front_hand03_02]
18 71.020905 -0.000060 0.000060 0.000322 -0.002325 -105.750679 71.020905
19 71.020905 -0.000060 0.000060 0.000323 -0.002325 -105.841873 71.020905
[R_forearm]
18 322.776428 -0.000060 0.000030 0.201048 0.068343 -109.873505 322.776428
19 322.776428 -0.000060 0.000030 0.201062 0.068300 -109.849342 322.776428
[R_front_hand]
18 238.847015 -0.006795 2.210259 -2.635298 -10.645461 -26.312506 238.857239
19 238.847015 -0.006795 2.210259 -2.635298 -10.645461 -26.312506 238.857239
[R_weapon_bone]
18 155.664093 0.002503 -0.000030 0.003487 0.001180 -90.988930 155.664078
19 155.664093 0.002503 -0.000030 0.003487 0.001180 -90.988930 155.664078
[R_front_hand01_01]
18 87.624611 14.231146 22.918642 -153.536850 -59.633720 60.470856 91.683487
19 87.624611 14.231146 22.918642 -154.633499 -59.950619 61.746044 91.683487
[R_front_hand02_01]
18 89.356956 14.367283 -19.491137 153.567581 57.992992 62.531010 92.579636
19 89.356956 14.367283 -19.491137 154.602661 58.302849 63.744389 92.579636
[R_front_hand03_01]
18 87.286232 -22.307278 -0.143439 0.155617 -0.427176 -75.061508 90.091743
19 87.286232 -22.307278 -0.143439 0.162155 -0.423168 -75.767921 90.091743
[R_front_hand01_02]
18 71.020905 0.000060 0.000119 0.002323 -0.000334 106.381714 71.020905
19 71.020905 0.000060 0.000119 0.002323 -0.000334 106.381714 71.020905
[R_front_hand02_02]
18 71.020844 -0.000030 -0.000119 0.002323 -0.000334 106.381714 71.020836
19 71.020844 -0.000030 -0.000119 0.002323 -0.000334 106.381714 71.020836
[R_front_hand03_02]
18 71.020905 0.000000 0.000030 0.002323 -0.000334 106.381714 71.020905
19 71.020905 0.000000 0.000030 0.002323 -0.000334 106.381714 71.020905
[null_rope01_connect]
18 328.732483 0.000000 -0.000238 -167.503448 7.638891 -156.880310 328.732483
19 328.732483 0.000000 -0.000238 -168.545654 2.565238 -154.722168 328.732483
[Rope1_Seg01]
18 0.000000 0.000000 0.000000 -80.914001 -72.999420 -163.564926 0.000000
19 0.000000 0.000000 0.000000 -74.624138 -51.946732 -154.705246 0.000000
[Rope1_Seg02]
18 139.999863 -0.000179 0.000000 7.034794 4.344701 8.064783 139.999863
19 139.999863 -0.000179 0.000000 7.053568 3.158187 4.385911 139.999863
[Rope1_Seg03]
18 139.999924 0.000060 -0.000060 9.389946 6.477266 8.757030 139.999924
19 139.999924 0.000060 -0.000060 7.805237 4.070814 4.134369 139.999924
[Rope1_Seg04]
18 139.999924 -0.000060 -0.000119 7.230250 7.815203 4.376205 139.999924
19 139.999924 -0.000060 -0.000119 3.344148 4.060758 -0.374839 139.999924
[Rope1_Seg05]
18 139.999832 0.000119 -0.000060 14.631928 10.672783 13.350845 139.999832
19 139.999832 0.000119 -0.000060 12.899146 6.377525 8.205877 139.999832
[Rope1_Seg06]
18 139.999954 0.000119 -0.000060 28.851648 21.819164 24.488493 139.999954
19 139.999954 0.000119 -0.000060 36.016933 17.022429 22.439892 139.999954
[Rope1_Seg07]
18 139.999985 0.000060 0.000000 10.540165 17.539286 6.568179 139.999985
19 139.999985 0.000060 0.000000 16.792149 19.803110 6.434114 139.999985
[Rope1_Seg09]
18 121.602913 0.000119 -0.000089 -89.793175 -1.359789 0.847147 121.602913
19 121.602913 0.000119 -0.000089 -89.793175 -1.359789 0.847147 121.602913
[L_mid_hand01]
18 103.859421 1.038730 8.195221 116.522369 -56.273468 -23.071594 104.187431
19 103.859421 1.038730 8.195221 119.055542 -59.298035 -26.066490 104.187431
[L_mid_hand02]
18 105.572853 -4.139662 -10.864139 -157.484543 39.487495 -56.304821 106.211075
19 105.572853 -4.139662 -10.864139 -160.167084 40.723114 -60.466171 106.211075
[L_mid_hand03]
18 104.641464 17.579376 -3.913581 -10.068332 15.918203 60.978344 106.179977
19 104.641464 17.579376 -3.913581 -9.090188 16.486177 64.488457 106.179977
[null_rope02_connect]
18 328.732849 0.000179 -0.000119 -3.884205 1.244054 149.566742 328.732849
19 328.732849 0.000179 -0.000119 -4.105094 1.852992 147.661896 328.732849
[Rope2_Seg01]
18 0.000052 0.000096 0.000000 100.652550 39.270241 49.475761 0.000109
19 0.000053 0.000093 0.000000 143.705261 64.315903 87.508293 0.000107
[Rope2_Seg02]
18 139.999741 -0.000060 -0.000119 0.053148 4.154017 -2.401767 139.999756
19 139.999741 -0.000060 -0.000119 17.128651 5.886648 -24.031012 139.999756
[Rope2_Seg03]
18 140.000107 0.000030 0.000000 0.071489 9.064862 -5.317939 140.000107
19 140.000107 0.000030 0.000000 68.650764 -0.340034 -75.021683 140.000107
[Rope2_Seg04]
18 139.999802 0.000000 -0.000060 -0.325609 30.482779 -19.203173 139.999802
19 139.999802 0.000000 -0.000060 2.285584 -30.812798 1.095887 139.999802
[Rope2_Seg05]
18 139.999985 -0.000060 0.000119 137.908951 45.028526 -47.684387 139.999985
19 139.999985 -0.000060 0.000119 -0.341099 -8.255065 2.069318 139.999985
[Rope2_Seg06]
18 139.999893 -0.000030 -0.000119 -5.389721 -44.757572 18.876503 139.999893
19 139.999893 -0.000030 -0.000119 -0.302811 -3.657766 0.392343 139.999893
[Rope2_Seg07]
18 139.999893 0.000060 -0.000060 -0.295945 -9.177785 3.270936 139.999893
19 139.999893 0.000060 -0.000060 -0.229943 -2.129624 0.218636 139.999893
[Rope2_Seg09]
18 121.338966 0.000089 -0.000060 33.793236 -1.359788 -0.847141 121.338966
19 121.338966 0.000089 -0.000060 33.793236 -1.359788 -0.847141 121.338966
[R_mid_hand01]
18 104.680779 11.144459 -10.335981 -35.915810 33.394669 39.963573 105.778534
19 104.680779 11.144459 -10.335981 -34.395393 34.968513 42.666153 105.778534
[R_mid_hand02]
18 104.070427 2.443552 8.231699 69.545181 -44.771023 15.251742 104.424065
19 104.070427 2.443552 8.231699 68.534225 -47.330887 16.661499 104.424065
[R_mid_hand03]
18 106.028137 -11.221827 -5.996406 -170.436981 12.655030 -49.730137 106.788818
19 106.028137 -11.221827 -5.996406 -171.057114 13.096072 -52.505157 106.788818
[spine02]
18 129.756927 0.001550 0.000119 0.540019 -4.023590 -15.514612 129.756927
19 129.756927 0.001550 0.000119 0.539141 -4.023707 -15.489609 129.756927
[spine03]
18 78.614044 0.081741 -4.899000 2.001248 3.775961 18.097380 78.766579
19 78.614044 0.081741 -4.899000 2.000518 3.778114 18.067341 78.766579
[pelvis]
18 169.435242 0.051022 0.000000 5.413707 -0.412707 -6.016539 169.435257
19 169.435242 0.051022 0.000000 4.553526 -0.324648 -7.376387 169.435257
[null_rope03_connect]
18 -1.257226 -2.466202 137.391083 -174.170624 -22.229023 -108.529045 137.418976
19 -1.257226 -2.466202 137.391083 -177.158081 -26.437790 -103.912567 137.418976
[null_rope04_connect]
18 -1.259640 -2.480268 -137.844437 -174.170624 -22.229023 -108.529045 137.872513
19 -1.259640 -2.480268 -137.844437 -177.158081 -26.437790 -103.912567 137.872513
[Rope3_Seg01]
18 0.000000 0.000000 0.000000 18.970522 7.831007 -51.368282 0.000000
19 0.000000 0.000000 0.000000 17.254408 3.527407 -72.893990 0.000000
[Rope3_Seg02]
18 139.999924 -0.000119 0.000060 0.642510 8.013135 -52.261738 139.999924
19 139.999924 -0.000119 0.000060 -6.552783 0.938165 -44.366474 139.999924
[Rope3_Seg03]
18 139.999924 -0.000119 0.000119 -15.573304 2.364772 -38.515579 139.999924
19 139.999924 -0.000119 0.000119 -11.701384 3.586956 -19.167370 139.999924
[Rope3_Seg04]
18 139.999924 0.000119 0.000000 -7.962379 3.911881 -8.015037 139.999924
19 139.999924 0.000119 0.000000 -2.970393 -0.188441 -5.417778 139.999924
[Rope3_Seg05]
18 139.999924 -0.000238 0.000060 -5.567436 4.725827 -2.800497 139.999924
19 139.999924 -0.000238 0.000060 1.583285 -2.798555 -2.154721 139.999924
[Rope3_Seg06]
18 139.999893 -0.000119 -0.000060 -5.897997 5.519706 -2.940609 139.999893
19 139.999893 -0.000119 -0.000060 0.492394 -1.419005 -2.076974 139.999893
[Rope3_Seg07]
18 139.999771 0.000060 -0.000119 -5.305247 5.184648 -2.870597 139.999771
19 139.999771 0.000060 -0.000119 0.048693 -0.798889 -1.779240 139.999771
[Rope3_Seg08]
18 139.999985 -0.000060 0.000000 -3.560688 4.034890 -1.777543 139.999985
19 139.999985 -0.000060 0.000000 0.190324 -0.540402 -1.201074 139.999985
[Rope3_Seg09]
18 90.185997 -0.000179 -0.000060 89.793228 -1.359877 -0.847183 90.185997
19 90.185997 -0.000179 -0.000060 89.793228 -1.359877 -0.847183 90.185997
[R_rear_hand01]
18 103.366196 -6.073594 -10.757982 -166.511444 20.844776 -45.419285 104.101845
19 103.366196 -6.073594 -10.757982 -167.735992 21.565800 -48.800823 104.101845
[R_rear_hand02]
18 100.509819 12.039542 -7.992327 -28.715427 27.221783 42.882874 101.543350
19 100.509819 12.039542 -7.992327 -27.197794 28.737703 46.115391 101.543350
[R_rear_hand03]
18 101.539970 5.215704 5.435467 81.812386 -45.906307 9.761457 101.819031
19 101.539970 5.215704 5.435467 81.295586 -49.108280 10.466788 101.819031
[Rope4_Seg01]
18 0.000010 0.000024 -0.000096 -63.883961 -61.481403 -151.544739 0.000100
19 0.000010 0.000023 -0.000093 -78.877792 -47.910816 -135.823227 0.000096
[Rope4_Seg02]
18 139.999985 0.000060 0.000119 -0.333701 8.561040 9.793711 139.999985
19 139.999985 0.000060 0.000119 -0.233910 8.216317 7.432721 139.999985
[Rope4_Seg03]
18 139.999924 0.000000 -0.000238 -1.146609 7.356977 7.779671 139.999924
19 139.999924 0.000000 -0.000238 -0.516588 6.798181 5.383258 139.999924
[Rope4_Seg04]
18 139.999985 0.000000 0.000119 -1.740991 6.027831 6.466532 139.999985
19 139.999985 0.000000 0.000119 -0.609093 5.583547 4.137204 139.999985
[Rope4_Seg05]
18 139.999802 -0.000060 -0.000119 -5.410940 3.732949 9.138744 139.999802
19 139.999802 -0.000060 -0.000119 -3.395823 2.849828 6.458865 139.999802
[Rope4_Seg06]
18 139.999924 0.000000 0.000060 -5.739941 1.204217 6.957952 139.999924
19 139.999924 0.000000 0.000060 -4.077152 0.755868 5.594042 139.999924
[Rope4_Seg07]
18 139.999802 0.000000 0.000000 -3.456679 0.623391 3.867781 139.999802
19 139.999802 0.000000 0.000000 -2.389659 0.652971 3.228652 139.999802
[Rope4_Seg08]
18 139.999924 0.000000 0.000119 -3.832592 0.249210 2.368755 139.999924
19 139.999924 0.000000 0.000119 -3.133439 0.358642 2.015511 139.999924
[Rope4_Seg09]
18 90.185791 0.000060 0.000060 -135.617828 2.228885 0.850567 90.185791
19 90.185791 0.000060 0.000060 -135.617828 2.228885 0.850567 90.185791
[L_rear_hand01]
18 101.696655 -8.392275 -7.654577 -21.250191 -33.196430 122.367828 102.329041
19 101.696655 -8.392275 -7.654577 -19.499582 -34.171791 119.209068 102.329041
[L_rear_hand02]
18 102.726799 -1.568258 5.773216 78.649612 59.766758 166.297348 102.900848
19 102.726799 -1.568258 5.773216 77.604713 62.517117 165.103577 102.900848
[L_rear_hand03]
18 104.552910 9.721220 -10.420293 -172.167084 -23.462940 -119.660843 105.519653
19 104.552910 9.721220 -10.420293 -173.384857 -23.818932 -116.619865 105.519653
